<svg id="Camada_1" data-name="Camada 1" xmlns="http://www.w3.org/2000/svg" xmlns:xlink="http://www.w3.org/1999/xlink" viewBox="0 0 100 100"><defs><style>.cls-1{fill:none;}.cls-2{clip-path:url(#clip-path);}</style><clipPath id="clip-path"><rect class="cls-1" x="23" y="20.71" width="54" height="58.58"/></clipPath></defs><title>ABRIR</title><path d="M50,79.29l-.22,0L29.63,76.83A1.83,1.83,0,0,1,28,75V60.37a1.83,1.83,0,0,1,3.66,0v13l16.46,2V47.22a1.79,1.79,0,0,1,.57-1.6A1.85,1.85,0,0,1,51.8,47V77.46a1.85,1.85,0,0,1-.62,1.37,1.81,1.81,0,0,1-1.21.46Zm0,0"/><path d="M50,79.29a1.82,1.82,0,0,1-1.83-1.83V47.56a1.83,1.83,0,1,1,3.66,0V75.39l16.45-2v-13a1.83,1.83,0,0,1,3.66,0V75a1.83,1.83,0,0,1-1.6,1.81L50.24,79.27l-.22,0Zm0,0"/><path d="M75,62.2H58.54A1.84,1.84,0,0,1,57,61.35L48.46,47.93a1.83,1.83,0,0,1,1.77-2.8l20.12,2.44a1.85,1.85,0,0,1,1.46,1.07l4.88,11A1.83,1.83,0,0,1,75,62.2ZM59.54,58.54H72.2l-3.32-7.46L53.63,49.23Zm0,0"/><path d="M41.46,62.2H25a1.83,1.83,0,0,1-1.67-2.57l4.88-11a1.85,1.85,0,0,1,1.46-1.08l20.12-2.44a1.85,1.85,0,0,1,1.77.84,1.83,1.83,0,0,1,0,2L43,61.36a1.85,1.85,0,0,1-1.55.84ZM27.8,58.54H40.46l5.92-9.31L31.12,51.08Zm0,0"/><g class="cls-2"><path d="M50,40.24a1.83,1.83,0,0,1-1.83-1.83V22.54a1.83,1.83,0,1,1,3.66,0V38.41A1.83,1.83,0,0,1,50,40.24Zm0,0"/><path d="M57.93,30.47a1.83,1.83,0,0,1-1.11-.37L50,24.85,43.18,30.1A1.83,1.83,0,0,1,41,27.19l7.93-6.1a1.83,1.83,0,0,1,2.24,0l7.93,6.1a1.83,1.83,0,0,1,.33,2.57,1.81,1.81,0,0,1-1.45.71Zm0,0"/></g></svg>