<svg id="Camada_1" data-name="Camada 1" xmlns="http://www.w3.org/2000/svg" viewBox="0 0 100 100"><defs><style>.cls-1{fill:none;stroke:#000;stroke-miterlimit:10;stroke-width:2.83px;}</style></defs><title>ANOTAÇÕES</title><path class="cls-1" d="M51.7,40.14H28.47A5.49,5.49,0,0,0,23,45.62V59.37a5.48,5.48,0,0,0,4.43,5.36l5.47,9.48,5.41-9.37H51.7a5.49,5.49,0,0,0,5.48-5.47V45.62A5.5,5.5,0,0,0,51.7,40.14Z"/><path class="cls-1" d="M57.14,50.49h4.55l5.41,9.37,5.47-9.48A5.49,5.49,0,0,0,77,45V31.27a5.49,5.49,0,0,0-5.47-5.48H48.3a5.5,5.5,0,0,0-5.48,5.48v8.87"/></svg>