<svg id="Camada_1" data-name="Camada 1" xmlns="http://www.w3.org/2000/svg" viewBox="0 0 100 100"><title>LIVRO</title><path d="M75.94,33.85H72.39V32.64a1.05,1.05,0,0,0-.75-1.05,29.55,29.55,0,0,0-7.55-1c-4.18,0-9.89.94-14.11,5.23-4.18-4.33-9.93-5.23-14.11-5.23a29.53,29.53,0,0,0-7.54,1,1.07,1.07,0,0,0-.76,1.05v1.2H24.05a1,1,0,0,0-1.05,1V68.32a1,1,0,0,0,1.05,1.05,1,1,0,0,0,.51-.14c.1,0,10.57-5.78,25.18-2.09H50a1.13,1.13,0,0,0,.26,0c14.65-3.72,25.12,2,25.18,2.09a1,1,0,0,0,1.57-.9V34.9a1,1,0,0,0-1-1ZM25.09,66.66V36H27.6V62.2a1,1,0,0,0,1,1.06l.17,0a46.13,46.13,0,0,1,6.54-.52,27.14,27.14,0,0,1,8.94,1.35,38.39,38.39,0,0,0-19.19,2.59ZM49,64c-2.18-1.43-6.43-3.34-13.61-3.34a45.16,45.16,0,0,0-5.69.36V33.47a28.75,28.75,0,0,1,6.2-.7c3.92,0,9.32.9,13.07,5.13ZM51,37.9c3.75-4.18,9.15-5.13,13.06-5.13a28.84,28.84,0,0,1,6.21.7V61a46.64,46.64,0,0,0-5.66-.37c-7.14,0-11.4,1.91-13.61,3.34ZM74.9,66.66a38.56,38.56,0,0,0-19.23-2.59,27.07,27.07,0,0,1,9-1.35,45.35,45.35,0,0,1,6.58.51,1,1,0,0,0,1.19-.87,1.11,1.11,0,0,0,0-.17V36h2.5Z"/></svg>