<svg id="Camada_1" data-name="Camada 1" xmlns="http://www.w3.org/2000/svg" viewBox="0 0 150 150"><defs><style>.cls-1{fill:#fff;}</style></defs><title>GAMEFICAÇÃO</title><path class="cls-1" d="M86.64,106H63.36a1.29,1.29,0,0,1-1.29-1.29v-31a1.29,1.29,0,0,1,1.29-1.29H86.64a1.29,1.29,0,0,1,1.29,1.29v31.05A1.29,1.29,0,0,1,86.64,106Zm-22-2.59h20.7V75H64.65Zm0,0"/><path class="cls-1" d="M104.75,106H86.64a1.29,1.29,0,0,1-1.29-1.29V94.36a1.29,1.29,0,0,1,1.29-1.29h18.11A1.29,1.29,0,0,1,106,94.36v10.35a1.29,1.29,0,0,1-1.29,1.29Zm-16.82-2.59h15.53V95.65H87.93Zm0,0"/><path class="cls-1" d="M63.36,106H45.25A1.29,1.29,0,0,1,44,104.71V89.19a1.3,1.3,0,0,1,1.29-1.3H63.36a1.3,1.3,0,0,1,1.29,1.3v15.52A1.29,1.29,0,0,1,63.36,106Zm-16.82-2.59H62.07V90.48H46.54Zm0,0"/><path d="M81.39,67.2a1.28,1.28,0,0,1-.72-.23L75,63.12,69.33,67a1.29,1.29,0,0,1-2-1.38l1.77-7L63.81,54.1a1.3,1.3,0,0,1-.38-1.4,1.28,1.28,0,0,1,1.15-.88l6.75-.38,2.45-6.67a1.34,1.34,0,0,1,2.43,0l2.45,6.67,6.76.38a1.29,1.29,0,0,1,.76,2.28l-5.3,4.53,1.77,7A1.29,1.29,0,0,1,82.13,67a1.21,1.21,0,0,1-.74.24ZM75,60.26a1.3,1.3,0,0,1,.73.22l3.57,2.43-1.12-4.43a1.3,1.3,0,0,1,.41-1.3l3.47-3L77.67,54a1.27,1.27,0,0,1-1.14-.85L75,49l-1.53,4.16a1.27,1.27,0,0,1-1.14.85l-4.39.25,3.46,3a1.28,1.28,0,0,1,.42,1.3l-1.13,4.44,3.58-2.44a1.3,1.3,0,0,1,.73-.22Zm0,0"/><rect x="63.36" y="73.49" width="23.7" height="31.52"/><rect x="44.73" y="89.01" width="17.8" height="15.99"/><rect x="87.99" y="94.14" width="17.45" height="10.87"/><path class="cls-1" d="M75.85,95.71a1.29,1.29,0,0,1-1.29-1.29v-9a1.3,1.3,0,0,1,0-2.59h1.29a1.3,1.3,0,0,1,1.3,1.29V94.42a1.3,1.3,0,0,1-1.3,1.29Zm0,0"/></svg>