<svg id="Camada_1" data-name="Camada 1" xmlns="http://www.w3.org/2000/svg" xmlns:xlink="http://www.w3.org/1999/xlink" viewBox="0 0 150 150"><defs><style>.cls-1{fill:none;}.cls-2{fill:#fff;}.cls-3{clip-path:url(#clip-path);}</style><clipPath id="clip-path"><rect class="cls-1" x="47.83" y="44" width="54.33" height="62"/></clipPath></defs><title>HTML5</title><polygon class="cls-2" points="89.48 91.95 74.81 95.21 59.9 92.28 56.47 53.16 93.15 53.16 89.48 91.95"/><g class="cls-3"><path d="M48.78,44.1a.93.93,0,0,0-.94,1l4.77,53.58A1.61,1.61,0,0,0,53.7,100L74,105.64a4.46,4.46,0,0,0,2,0L96.29,100a1.61,1.61,0,0,0,1.08-1.3l4.79-53.57a.93.93,0,0,0-.94-1ZM92,56.39c0,.5-.12,1.38-.17,1.94l-.13,1.41c-.05.56-.12,1.37-.16,1.79a7.1,7.1,0,0,1-.08.77H66.37a.92.92,0,0,0-.93,1l.44,4.94a1.14,1.14,0,0,0,1.12,1H89.91a.84.84,0,0,1,.84.92c0,.5-.13,1.38-.18,1.94L89.15,88.05c-.05.57-.11,1.29-.14,1.61s-.5.7-1,.85L76,93.83l-1,.28-1-.27L62,90.51a1.61,1.61,0,0,1-1.08-1.3l-.77-8.67a.92.92,0,0,1,.94-1h4.78a1.14,1.14,0,0,1,1.12,1l.31,3.39a1.6,1.6,0,0,0,1.08,1.3L74,86.74,75,87l1-.27,5.62-1.51a1.59,1.59,0,0,0,1.08-1.3l.61-6.79a.93.93,0,0,0-.93-1H60.76a1.14,1.14,0,0,1-1.12-1l-1.5-16.75c0-.56-.12-1.44-.17-1.94a.88.88,0,0,1,1-.92H91a.88.88,0,0,1,.94.92Zm0,0"/></g></svg>