<svg id="Camada_1" data-name="Camada 1" xmlns="http://www.w3.org/2000/svg" viewBox="0 0 150 150"><defs><style>.cls-1{fill:#fff;}</style></defs><title>JOGO_MEMÓRIA</title><rect x="42.53" y="44" width="64.97" height="62" rx="6.83"/><rect class="cls-1" x="74.23" y="44" width="1.57" height="62"/><rect class="cls-1" x="42.48" y="74.22" width="65.05" height="1.57"/><path class="cls-1" d="M84.12,101.26l1.39-8.13-5.9-5.76,8.16-1.19,3.65-7.4,3.65,7.4,8.17,1.19-5.91,5.76,1.4,8.13-7.31-3.84Zm7.3-5.61,5.22,2.74-1-5.81,4.22-4.12L94,87.61l-2.61-5.28-2.61,5.28L83,88.46l4.22,4.12-1,5.81Z"/><path class="cls-1" d="M66,69.73l-7.3-3.84-7.31,3.84,1.4-8.13-5.91-5.76L55,54.65l3.66-7.4,3.65,7.4,8.16,1.19L64.55,61.6ZM50.2,56.93l4.22,4.12-1,5.81,5.22-2.74,5.22,2.74-1-5.81,4.22-4.12-5.83-.85L58.65,50.8,56,56.08Z"/><path class="cls-1" d="M100.59,68.72H82.26V50.38h18.33ZM83.82,67.15H99V52H83.82Z"/><path class="cls-1" d="M67.81,99.36H49.48V81H67.81ZM51.05,97.79H66.24V82.59H51.05Z"/></svg>