<svg id="Camada_1" data-name="Camada 1" xmlns="http://www.w3.org/2000/svg" xmlns:xlink="http://www.w3.org/1999/xlink" viewBox="0 0 150 150"><defs><style>.cls-1{fill:none;}.cls-2{clip-path:url(#clip-path);}</style><clipPath id="clip-path"><rect class="cls-1" x="44" y="44" width="62" height="62"/></clipPath></defs><title>OPÇÕES</title><g class="cls-2"><path d="M104.56,54.43l-.63-.33a7,7,0,0,0,.13-1.65l.68-.22a1.82,1.82,0,0,0-1.11-3.46l-.69.22a6.44,6.44,0,0,0-1.07-1.26l.33-.64A1.82,1.82,0,0,0,99,45.44l-.32.64A6.17,6.17,0,0,0,97,46l-.22-.69a1.82,1.82,0,0,0-3.46,1.12l.22.68a6.74,6.74,0,0,0-1.26,1.07l-.64-.33A1.82,1.82,0,1,0,90,51l.64.32A6.57,6.57,0,0,0,90.48,53l-.68.22a1.82,1.82,0,0,0,.55,3.55,1.77,1.77,0,0,0,.56-.09l.68-.22a6.54,6.54,0,0,0,1.08,1.26l-.33.64a1.82,1.82,0,0,0,.79,2.45A1.88,1.88,0,0,0,94,61a1.82,1.82,0,0,0,1.61-1l.33-.64a6.9,6.9,0,0,0,1.36.14h.29l.22.68a1.82,1.82,0,0,0,1.73,1.26,1.87,1.87,0,0,0,.56-.09,1.81,1.81,0,0,0,1.17-2.28l-.22-.68a6.85,6.85,0,0,0,1.26-1.08l.64.33a1.74,1.74,0,0,0,.82.2,1.81,1.81,0,0,0,.83-3.43ZM94.45,51.29a3.17,3.17,0,0,1,2.82-1.72,3.09,3.09,0,0,1,1.44.35,3.16,3.16,0,1,1-4.26,1.37Zm0,0"/></g><path d="M93.47,73.76a3.39,3.39,0,0,1-2.37-2.15c-.17-.48-.37-1-.58-1.42a3.37,3.37,0,0,1,.15-3.2A5.6,5.6,0,0,0,83,59.33a3.37,3.37,0,0,1-3.2.15c-.47-.21-.94-.41-1.42-.58a3.39,3.39,0,0,1-2.15-2.37,5.61,5.61,0,0,0-10.84,0,3.37,3.37,0,0,1-2.15,2.37c-.47.17-1,.37-1.41.58a3.37,3.37,0,0,1-3.2-.15,5.61,5.61,0,0,0-6.78,8.81l.21.22a21.4,21.4,0,0,0-2.16,5.21h-.3a5.61,5.61,0,0,0-1.44,11,3.33,3.33,0,0,1,2.37,2.15c.18.47.38,1,.59,1.41a3.34,3.34,0,0,1-.16,3.2A5.61,5.61,0,0,0,58.64,99a3.34,3.34,0,0,1,3.2-.16c.46.21.94.41,1.41.59a3.33,3.33,0,0,1,2.15,2.37,5.61,5.61,0,0,0,10.84,0,3.35,3.35,0,0,1,2.15-2.37c.48-.18,1-.38,1.42-.59A3.34,3.34,0,0,1,83,99a5.61,5.61,0,0,0,7.66-7.67,3.37,3.37,0,0,1-.15-3.2c.21-.46.41-.94.58-1.41a3.37,3.37,0,0,1,2.37-2.15,5.61,5.61,0,0,0,0-10.84Zm-14,16.62a1.77,1.77,0,0,1-.92.66h0a14.25,14.25,0,1,1,.92-.66Zm0,0"/></svg>