<svg id="Camada_1" data-name="Camada 1" xmlns="http://www.w3.org/2000/svg" viewBox="0 0 150 150"><defs><style>.cls-1{stroke:#fff;stroke-miterlimit:10;stroke-width:0.28px;}</style></defs><title>QUEBRA_CABEÇA</title><path d="M70.34,59.15a4.46,4.46,0,1,1,0-5.12V44H45.15V69.18H55.23a4.46,4.46,0,1,0,5,0H70.34v-10Z"/><path class="cls-1" d="M89.85,81a4.41,4.41,0,1,1,5.08,0h9.92V56.05H79.92V66a4.42,4.42,0,1,0,0,5V81Z"/><path class="cls-1" d="M70,81.08a4.42,4.42,0,1,1-5.07,0H55V106H79.92V96a4.42,4.42,0,1,0,0-5v-10Z"/><path class="cls-1" d="M79.92,91a4.41,4.41,0,1,1,0,5.08V106h24.93V81h-10a4.42,4.42,0,1,0-5,0h-10V91Z"/></svg>