<svg id="Camada_1" data-name="Camada 1" xmlns="http://www.w3.org/2000/svg" viewBox="0 0 100 100"><title>SAVE</title><path d="M77,31.57,68.43,23a1.61,1.61,0,0,0-1.14-.47H24.11a1.61,1.61,0,0,0-1.61,1.61V75.89a1.61,1.61,0,0,0,1.61,1.61H75.89a1.61,1.61,0,0,0,1.61-1.61V32.71A1.61,1.61,0,0,0,77,31.57Zm-19-5.85V36.46H35.5V25.72ZM35.5,74.28V51.72h29V74.28Zm38.78,0H67.72V50.11a1.61,1.61,0,0,0-1.61-1.61H33.89a1.61,1.61,0,0,0-1.61,1.61V74.28H25.72V25.72h6.56V38.08a1.61,1.61,0,0,0,1.61,1.61H59.67a1.61,1.61,0,0,0,1.61-1.61V25.72h5.35l7.65,7.65Zm-13-4.84a1.61,1.61,0,0,1-1.61,1.61H40.33a1.61,1.61,0,0,1,0-3.22H59.67A1.61,1.61,0,0,1,61.28,69.44Zm0-12.89a1.61,1.61,0,0,1-1.61,1.61H40.33a1.61,1.61,0,0,1,0-3.22H59.67A1.61,1.61,0,0,1,61.28,56.55Zm0,6.45a1.61,1.61,0,0,1-1.61,1.61H40.33a1.61,1.61,0,0,1,0-3.22H59.67A1.61,1.61,0,0,1,61.28,63Z"/></svg>