<svg id="Camada_1" data-name="Camada 1" xmlns="http://www.w3.org/2000/svg" xmlns:xlink="http://www.w3.org/1999/xlink" viewBox="0 0 100 100"><defs><style>.cls-1{fill:none;}.cls-2{clip-path:url(#clip-path);}</style><clipPath id="clip-path"><rect class="cls-1" x="23" y="23" width="54" height="54"/></clipPath></defs><title>VISUALIZAR</title><g class="cls-2"><path d="M76.64,49C71.73,43,61.34,36,50,36s-21.77,7-26.64,13a1.6,1.6,0,0,0,0,2c5,6.12,15.44,13,26.64,13,11.6,0,21.94-7.24,26.64-13a1.6,1.6,0,0,0,0-2ZM60.79,50A10.79,10.79,0,1,1,50,39.21,10.8,10.8,0,0,1,60.79,50ZM26.73,50a38.32,38.32,0,0,1,12.15-8.44,13.94,13.94,0,0,0,0,16.88A37.73,37.73,0,0,1,26.73,50Zm34.39,8.44a13.94,13.94,0,0,0,0-16.88A37.73,37.73,0,0,1,73.27,50a38.32,38.32,0,0,1-12.15,8.44Zm0,0"/></g><path d="M44.6,50A5.4,5.4,0,1,0,50,44.6,5.4,5.4,0,0,0,44.6,50Zm7.62,0A2.22,2.22,0,1,1,50,47.78,2.21,2.21,0,0,1,52.22,50Zm0,0"/><path d="M50,29.88a1.59,1.59,0,0,0,1.59-1.59v-3.7a1.59,1.59,0,0,0-3.18,0v3.7A1.59,1.59,0,0,0,50,29.88Zm0,0"/><path d="M59.48,32a1.58,1.58,0,0,0,2.16-.6l2.12-3.7A1.59,1.59,0,0,0,61,26.13l-2.12,3.71a1.59,1.59,0,0,0,.6,2.17Zm0,0"/><path d="M38.36,31.41a1.59,1.59,0,1,0,2.76-1.57L39,26.13a1.59,1.59,0,0,0-2.76,1.58Zm0,0"/><path d="M50,70.12a1.59,1.59,0,0,0-1.59,1.59v3.7a1.59,1.59,0,0,0,3.18,0v-3.7A1.59,1.59,0,0,0,50,70.12Zm0,0"/><path d="M40.52,68a1.58,1.58,0,0,0-2.16.6l-2.12,3.7A1.59,1.59,0,0,0,39,73.87l2.12-3.71a1.59,1.59,0,0,0-.6-2.17Zm0,0"/><path d="M61.64,68.59a1.59,1.59,0,1,0-2.76,1.57L61,73.87a1.59,1.59,0,0,0,2.76-1.58Zm0,0"/></svg>